<?xml version="1.0" encoding="UTF-8" standalone="no"?>
<svg
   xmlns:dc="http://purl.org/dc/elements/1.1/"
   xmlns:cc="http://creativecommons.org/ns#"
   xmlns:rdf="http://www.w3.org/1999/02/22-rdf-syntax-ns#"
   xmlns:svg="http://www.w3.org/2000/svg"
   xmlns="http://www.w3.org/2000/svg"
   viewBox="0 0 379.28751 372.57501"
   height="372.57501"
   width="379.28751"
   xml:space="preserve"
   version="1.1"
   id="svg2"><metadata
     id="metadata8"><rdf:RDF><cc:Work
         rdf:about=""><dc:format>image/svg+xml</dc:format><dc:type
           rdf:resource="http://purl.org/dc/dcmitype/StillImage" /><dc:title></dc:title></cc:Work></rdf:RDF></metadata><defs
     id="defs6" /><g
     transform="matrix(1.25,0,0,-1.25,0,372.575)"
     id="g10"><g
       transform="scale(0.1,0.1)"
       id="g12"><path
         id="path14"
         class="logo"
         style="fill:white;fill-opacity:1;fill-rule:evenodd;"
         d="m 1471.56,2979.18 c 124.14,5.92 240.51,-7.66 346.33,-28.08 105.33,-20.32 200.21,-52.02 287.99,-87.84 88.46,-36.09 170.41,-79.73 246.25,-129.6 227.7,-149.73 406.4,-343.48 531.35,-596.16 83.44,-168.72 138.54,-364.36 149.77,-601.91 2.91,-61.57 -0.71,-122.66 -5.77,-180.73 -14.8,-169.9 -58.11,-320.41 -115.2,-448.551 -59.24,-133 -128.42,-245.047 -213.84,-349.922 C 2559.39,385.652 2381.01,244.824 2169.96,145.262 1998.88,64.5586 1803.39,12.668 1562.28,1.26172 1440.11,-4.51172 1321.46,10.293 1216.68,30.0664 1111.44,49.9219 1015.43,81.1641 927.965,117.188 750.828,190.145 598.023,291.348 470.762,411.66 340.852,534.492 234.84,674.922 150.367,842.949 108.301,926.609 74.1914,1018.23 48.125,1116.54 21.5039,1216.95 7.00781,1325.32 1.32422,1445.59 c -5.75781,121.8 7.83984,239.41 29.51958,343.43 21.8945,105.07 52.6796,199.45 90.7192,285.12 78.046,175.78 177.007,323.89 302.402,449.28 125.871,125.88 268.965,232.11 439.918,311.76 129.086,60.15 269.607,106.31 434.157,129.61 55.11,7.79 112.29,11.48 173.52,14.39 z m -287.28,-219.59 c -263.069,-65.86 -465.51,-196.24 -630.714,-361.45 -110.683,-110.68 -198.16,-239 -267.121,-394.55 -33.007,-74.46 -60.144,-158.78 -79.199,-251.29 -18.84,-91.44 -30.961,-195.45 -25.922,-303.83 4.906,-105.52 18.289,-200.38 41.762,-288.72 22.937,-86.37 53.629,-166 90.719,-239.77 C 387.875,772.656 480.691,647.527 596.762,541.262 711.254,436.445 841.484,346.18 999.965,282.781 c 77.585,-31.031 160.755,-58.914 254.165,-76.316 92.5,-17.238 195.76,-30.254 304.56,-25.203 207.43,9.644 383.36,55.554 534.24,126.726 150.5,70.985 276.61,163.567 387.36,274.317 109.52,109.519 199.1,241.523 266.39,395.285 33.45,76.41 60.5,158.46 79.93,250.55 19.23,91.26 31.69,194.65 26.64,303.13 -9.6,206.13 -58.37,381.05 -132.48,528.48 -74.95,149.06 -165.12,271.77 -282.25,379.43 -114.38,105.14 -245.44,194.12 -403.19,258.48 -77.44,31.6 -160.82,59.17 -253.45,77.04 -91.28,17.62 -198.06,29.66 -306.71,24.48 -106.83,-5.08 -202.22,-17.4 -290.89,-39.59" />
         <path
         id="path16"
         class="logo"
         style="fill-opacity:1;fill-rule:evenodd;"
         d="m 2517.01,2187.91 c 7.84,0.64 13.09,-1.31 17.99,-3.61 5.95,-13.13 6.13,-27.37 10.08,-43.91 1.08,-4.51 3.95,-9.09 4.32,-13.69 0.23,-2.7 -1.04,-5.86 -0.71,-8.63 0.52,-4.65 3.06,-11.86 5.04,-16.57 1.44,-3.45 5.27,-6.54 6.47,-10.8 2.26,-7.92 1.44,-19.81 1.44,-30.95 0,-10.61 2.06,-23.23 0,-31.68 -1.74,-7.21 -9.65,-10.12 -14.4,-15.84 -1.62,-6.04 -6.63,-10.12 -9.35,-15.84 -1.23,-2.59 -0.89,-6.17 -2.16,-8.65 -1.57,-3.03 -5.99,-4.79 -7.92,-7.92 -3.27,-5.25 -4.24,-12.14 -7.21,-16.56 -1.85,-2.76 -5.07,-3.82 -7.2,-6.48 -1.7,-2.13 -2.54,-5.33 -4.31,-7.92 -1.46,-2.12 -3.45,-4.43 -5.04,-6.48 -12.1,-15.47 -23.88,-32.11 -39.6,-44.64 -0.04,-9.16 -9.45,-10.22 -14.41,-15.12 -2.16,-2.13 -2.15,-6.01 -4.31,-8.64 -1.48,-1.78 -5.02,-2.76 -7.21,-5.03 -4.38,-4.57 -4.91,-9.31 -12.96,-10.09 -6.6,-6.56 -9.93,-14.38 -15.84,-20.88 -2.58,-2.83 -6.87,-3.73 -9.35,-7.19 -1.46,-2.02 -1.81,-5.93 -3.61,-9.36 -2.3,-4.42 -6.03,-7.79 -7.19,-11.53 -4.93,-15.74 -0.82,-29.38 -8.65,-43.92 -1.66,-3.07 -5.28,-6.31 -6.47,-9.35 -1.61,-4.09 -0.56,-9.49 -2.17,-13.68 -1.35,-3.52 -4.37,-5.09 -6.48,-7.93 -6.03,-8.12 -11.47,-17.56 -17.99,-25.91 -6.56,-8.4 -13.82,-16.35 -20.89,-23.05 -1.66,-3.85 -3.95,-7.09 -5.75,-10.8 -5.08,-3.08 -10.08,-6.25 -16.56,-7.92 -7.5,7.15 -15.24,14.05 -25.21,18.72 -6.86,-7.92 -14.79,-15.32 -18,-26.63 -1.42,-5.05 0.65,-9.27 0.73,-15.13 0.16,-13.75 -5.41,-27.19 -6.49,-41.04 -1.46,-18.8 -0.89,-42.23 5.05,-56.87 2.16,-5.34 8.29,-9.59 12.24,-15.84 1.3,-2.09 1.64,-5.3 2.87,-7.21 1.92,-2.96 5.78,-4.43 7.93,-7.2 2.19,-2.83 4,-6.75 6.47,-10.08 2.3,-3.08 5.76,-6.74 7.21,-9.36 3.47,-6.32 3.31,-12.84 10.8,-15.84 2.2,-10.5 7.31,-18.12 14.39,-23.76 -0.9,-7.4 6.93,-10.46 10.08,-15.84 2.99,-5.07 3.82,-12.16 7.21,-17.28 1.96,-2.97 5.93,-5.37 7.2,-7.92 2.22,-4.53 0.87,-12.29 2.87,-18.72 1.44,-4.61 5.5,-8.15 7.93,-12.95 2.91,-5.8 3.22,-12.57 5.04,-17.29 2.07,-5.37 8.6,-10.4 10.07,-15.12 1.04,-3.3 -0.28,-7.55 0.73,-10.8 1.25,-4.04 5.53,-6.73 7.91,-10.8 3.29,-5.61 4.65,-13.09 8.65,-18.72 1.85,-2.61 5.01,-4.66 6.47,-7.2 1.81,-3.14 1.44,-7.02 2.88,-10.07 3.04,-6.43 9.43,-10.91 12.24,-17.29 -5,-10.35 -16.06,-14.66 -22.31,-23.76 2.06,-7.68 8.81,-8.65 8.64,-17.28 -0.11,-5.01 -3.96,-9.38 -7.92,-12.23 -8.9,-6.41 -20.68,-13.58 -34.56,-15.13 -12.9,-1.43 -25.92,1.99 -36.72,-1.43 -4.47,-1.43 -7.8,-7.27 -13.68,-10.81 -5.7,-3.42 -13.95,-3.8 -18.72,-7.19 -2.61,-1.86 -7.54,-8.55 -8.65,-10.8 -4.52,-9.24 -1.77,-22.17 -4.31,-33.13 -1.08,-4.61 -4.23,-11.21 -7.21,-15.84 -1.95,-3.03 -5.39,-4.94 -6.48,-7.92 -0.92,-2.55 0.11,-5.92 -0.72,-8.63 -1.58,-5.16 -6.99,-9.03 -8.64,-13.68 -1.79,-5.07 -1.55,-11.75 -2.88,-15.84 -3.6,-11.14 -18.02,-20.87 -11.51,-41.77 3.14,-10.12 20.57,-22.61 30.95,-26.64 3.59,-1.39 8.05,-1.23 11.53,-2.87 3.34,-1.6 5.28,-5.33 8.63,-7.21 6.94,-3.89 14.05,-5.038 20.16,-10.799 2.34,-2.2 4.73,-6.844 7.2,-10.078 2.73,-3.563 6.68,-7.032 7.92,-9.356 1.53,-2.844 1.44,-6.582 2.88,-9.363 1.63,-3.149 4.68,-5.344 6.49,-8.633 4.44,-8.117 5.17,-17.934 15.12,-21.606 4.35,-11.621 10.26,-21.718 17.27,-32.402 2.24,-3.406 6.46,-5.672 7.92,-9.363 1.37,-3.438 0.78,-7.957 2.17,-11.516 1.74,-4.472 6.15,-6.941 8.63,-10.801 2.42,-3.75 3.4,-8.433 5.76,-12.234 2.13,-3.445 5.82,-5.867 7.92,-9.363 1.37,-2.27 1.44,-5.121 2.88,-7.199 2.3,-3.301 5.93,-6.973 8.65,-10.079 2.92,-3.359 5.24,-6.757 7.92,-10.089 9.92,-12.332 25.96,-16.532 33.83,-30.235 3.51,-0.816 6.58,-2.066 9.36,-3.601 2.73,-3.164 1.4,-5.926 3.6,-9.356 2.24,-3.476 6.88,-4.316 8.64,-7.922 3.83,-7.84 1.96,-21.55 1.44,-32.398 -0.56,-11.926 1.03,-23.442 -0.71,-33.84 -7.29,-7.434 -20.08,-1.824 -30.97,-3.605 -10.85,-1.766 -14.39,-14.258 -19.43,-23.036 -1.26,-2.187 -4.52,-4.035 -6.49,-7.207 -2.73,-4.406 -3.92,-10.515 -7.19,-14.394 -2.62,-3.098 -7.36,-6.133 -10.81,-9.367 -9.32,-8.711 -11.23,-7.578 -27.36,-10.078 -16.2,-2.508 -48.89,-6.375 -62.64,2.16 -8.62,5.363 -4.67,13.465 0.73,20.886 7.3,3.047 11.44,10.481 17.27,15.118 2.43,1.925 5.73,2.336 7.92,4.32 5.45,4.922 5.35,9.969 8.65,17.996 1.17,2.852 4.2,5.078 5.04,7.922 1.42,4.871 -0.02,10.535 1.43,15.84 1.32,4.773 4.39,6.14 5.76,10.086 3.11,8.855 2.51,18.496 0,26.64 -1.15,3.739 -4.5,6.895 -5.76,11.516 -1.09,4.043 -0.13,8.277 -1.43,12.246 -1.68,5.066 -6.05,7.371 -9.37,12.234 -2.2,3.223 -3.63,7.793 -5.75,11.524 -3.71,6.484 -7.94,9.297 -10.09,17.273 -7.31,2.16 -10.07,9.504 -15.12,14.407 -1.98,1.921 -5.08,2.332 -7.19,4.316 -1.51,1.406 -1.95,4.187 -3.61,5.762 -4.64,4.382 -13.48,6.211 -15.12,14.394 -8.87,4.844 -15.91,12.567 -23.03,20.164 -6.89,7.336 -15.65,13.274 -21.6,20.879 -1.76,2.238 -2.32,5.805 -4.33,7.922 -1.86,1.953 -5.18,2.551 -7.2,4.316 -6.56,5.789 -12.3,13.114 -16.56,20.879 -9.62,4.063 -12.05,15.313 -21.59,19.442 -0.94,2.187 -2.09,4.152 -2.88,6.488 -8.42,0.984 -9.41,8.418 -14.41,13.672 -1.8,1.902 -5.01,2.273 -7.19,4.324 -1.93,1.785 -2.52,4.805 -4.33,6.473 -2.54,2.367 -6.24,2.844 -8.63,5.043 -1.94,1.773 -2.45,5.816 -5.04,8.64 -2.63,2.848 -6.55,3.708 -7.92,5.758 -1.82,2.72 -5.19,12.33 -6.49,15.84 -1.18,3.2 -1.46,7.43 -2.88,11.53 -1.37,3.96 -4.43,7.02 -5.04,12.23 -1.59,13.8 -2.09,46.27 0,60.48 0.63,4.24 3.64,8.55 5.04,13.69 1.15,4.22 0.95,9.12 2.16,12.95 3.07,9.67 10.51,20.89 4.33,34.56 -5.43,-1.63 -10.83,-0.08 -16.57,-1.43 -7.95,-1.9 -11.17,-9.92 -25.2,-7.21 -4.46,0.87 -8.14,5.33 -12.24,6.49 -5.99,1.67 -11.68,-0.25 -17.27,2.15 -6.34,2.72 -8.57,7.97 -14.41,11.53 -3.24,8.59 3.37,26.55 -4.31,28.8 -4.85,1.41 -6.96,-4.61 -10.8,-7.93 -4.77,-4.12 -10.44,-5.99 -15.13,-10.07 -6.41,-5.61 -10.19,-13.61 -17.28,-14.41 -1.7,-2.13 -2.6,-5.06 -4.31,-7.19 -5.69,-1.94 -12.14,-7.21 -18.72,-12.96 -5.63,-4.91 -12.05,-9.16 -17.29,-13.69 -6.89,-5.95 -15.97,-17.64 -11.51,-33.83 1.33,-4.83 5.26,-4.76 8.63,-8.64 0.46,-13.2 14.89,-21.88 16.56,-33.84 0.94,-6.7 -0.21,-14 1.45,-20.17 3.88,-14.45 10.36,-31.02 10.79,-44.638 0.24,-7.55 -0.93,-15.597 0,-23.761 0.63,-5.387 2.53,-10.731 3.6,-16.563 1.11,-5.965 0.82,-12.519 2.16,-17.996 1.73,-7.078 5.73,-13.516 6.49,-20.879 0.78,-7.566 -0.59,-14.746 1.43,-20.879 3.71,-11.222 12.81,-18.769 12.25,-30.957 2.63,-3.137 7.07,-4.441 10.07,-7.207 2.43,-10.773 11.31,-15.097 14.4,-25.195 1.46,-15.254 -1.02,-29.602 -3.59,-41.758 -1.31,-6.211 -1.53,-12.297 -3.61,-15.84 -6.16,-10.508 -29.68,-11.289 -38.15,-0.722 -0.82,5.91 -1.3,12.148 -5.05,15.117 -13.12,-2.532 -23.27,-4.961 -33.84,-10.801 -2.46,-1.359 -3.87,-4.5 -6.47,-5.75 -2.72,-1.313 -6.09,-0.918 -8.65,-2.168 -6.43,-3.148 -9.47,-8.852 -19.44,-10.078 -23.92,-2.961 -56.26,2.078 -78.47,6.48 -6.72,4.785 -6.5,15.18 -3.61,20.879 6.84,13.481 30.63,6.289 46.09,10.078 15.27,3.75 21.29,18.274 28.07,28.801 8.42,10.36 23.01,13.508 24.48,29.52 2.1,22.707 0.41,57.199 -5.03,73.437 -1.12,3.32 -4.12,6.496 -5.04,9.367 -1.41,4.356 -1.21,9.246 -2.89,12.957 -3.15,6.954 -9.47,10.356 -11.52,15.84 -1.32,3.535 -0.3,7.453 -1.43,10.805 -2.07,6.082 -8,8.992 -9.37,13.68 -1,3.464 0.11,7.081 -0.71,10.081 -2.3,8.38 -10.31,11.81 -12.96,18 1.38,10.79 -6.01,16.87 -9.37,23.75 -2.69,5.53 -3.35,11.06 -6.47,15.84 -2.26,3.44 -6.69,6.24 -8.64,10.08 -1.23,2.39 -0.9,5.45 -2.16,7.92 -1.83,3.56 -5.69,5.42 -7.92,8.65 -2.4,3.46 -4.59,8.44 -7.21,12.96 -2.32,4.02 -6.4,8.53 -7.92,12.23 -1.72,4.24 -1.04,9.13 -2.16,13.68 -1.18,4.84 -5.52,9.89 -5.04,15.84 0.25,2.99 3.41,5.25 5.04,10.08 1.47,4.34 0.77,9.57 2.16,12.97 1.48,3.58 6.05,5.73 8.64,10.08 2.36,3.93 3.57,9.21 5.77,12.96 2.31,3.94 6.46,6.86 8.64,10.8 1.32,2.38 1.71,5.64 2.87,7.91 1.81,3.52 4.83,7.16 7.21,10.81 2.43,3.73 4.08,8.24 6.47,11.51 1.94,2.65 5.42,4.21 7.21,7.21 1.6,2.68 1.44,6.61 2.88,9.35 2.59,4.95 8.81,8.15 11.51,12.96 1.53,2.73 1.24,6.45 2.88,9.37 1.97,3.49 5.58,5.91 7.2,9.35 1.79,3.79 1.72,8.29 3.6,11.53 2.6,4.46 8.32,6.13 10.8,10.07 1.77,2.81 1.95,6.87 3.61,10.08 1.78,3.48 5.29,6.07 7.19,9.37 1.32,2.29 1.45,5.4 2.89,7.92 2.84,4.98 8.34,9.02 10.8,13.67 1.76,3.33 1.65,7.71 3.59,10.8 2.11,3.34 5.94,4.78 7.92,8.64 5.41,10.51 11.57,21.34 17.29,31.68 4.1,7.44 9.9,17.34 15.11,23.76 1.93,2.37 5.02,3.08 6.49,5.76 1.71,3.15 1.02,8.02 2.88,10.81 2.27,3.43 5.51,6.78 7.92,10.8 3.76,6.27 6.99,12.6 13.67,15.84 1.5,9.38 10.33,13.37 15.13,20.15 1.71,2.41 2.37,5.84 4.31,8.64 1.84,2.66 4.74,4.67 5.77,7.2 3.34,8.3 2.68,21.15 1.43,32.4 -0.67,6.1 -4.38,10.18 -6.47,15.84 -3.9,10.47 -4.82,23.62 -8.65,32.41 -1.76,4.02 -6.44,6.61 -8.64,10.79 -1.25,2.39 -0.92,5.22 -2.16,7.2 -1.91,3.06 -5.77,4.46 -7.92,7.2 -5.35,6.86 -4.56,16.7 -11.52,21.6 -17.32,-1.34 -25.42,-14.18 -49.68,-9.36 -6.24,1.25 -10.7,5.78 -20.16,6.48 -8.14,0.61 -20.94,1.91 -27.36,0.72 -4.32,-0.79 -12.07,-6.63 -16.56,-11.51 -2.16,-2.36 -3.5,-6.71 -5.75,-9.37 -2.36,-2.77 -5.85,-3.82 -7.21,-5.76 -2.49,-3.56 -1.71,-6.72 -4.31,-9.36 -1.97,-1.98 -5.77,-2.06 -8.65,-4.32 -2.31,-1.81 -3.32,-5.77 -5.76,-7.92 -2.62,-2.3 -7.43,-3.9 -10.8,-6.48 -3.58,-2.74 -6.25,-6.68 -8.63,-7.92 -2.28,-1.18 -5.04,-1.01 -7.21,-2.15 -5.42,-2.89 -10.57,-8.07 -15.84,-11.52 -5.45,-3.58 -11.16,-8.17 -16.55,-10.8 -2.49,-1.22 -5.65,-1.04 -7.92,-2.17 -3.7,-1.82 -5.8,-5.57 -9.37,-7.92 -4.42,-2.92 -10.17,-3.97 -15.11,-6.48 -4.47,-2.26 -7.89,-6.4 -12.24,-8.63 -2.97,-1.52 -6.55,-2.1 -9.37,-3.61 -7.24,-3.87 -15.28,-14.28 -23.04,-21.6 -7.46,-7.04 -15.8,-14.89 -21.6,-22.32 -1.61,-2.06 -2.36,-5.41 -4.31,-7.92 -1.83,-2.33 -4.56,-3.81 -5.76,-5.76 -1.71,-2.73 -1.87,-6.65 -3.61,-9.36 -3.75,-5.85 -9.74,-9.41 -12.23,-14.4 -3.98,-7.95 -5.65,-14.63 -12.96,-20.16 -2.19,-1.65 -5.6,-2.15 -7.92,-3.6 -11.67,-7.19 -22.82,-17.78 -33.85,-22.32 -3.42,-0.3 -3.52,2.72 -6.47,2.89 -1.27,8.23 2.04,11.87 2.88,17.99 -7.41,9.47 -14.34,-2.18 -20.17,-4.31 -2.8,-1.03 -5.8,-0.21 -8.63,-0.73 -14.58,-2.66 -30.7,-7.56 -36.01,-20.16 -1.27,-3.03 -1,-6.51 -2.16,-9.36 -2.61,-6.39 -7.08,-6.86 -11.52,-11.52 -2.6,-2.72 -3.47,-6.85 -5.75,-7.92 -6,-2.76 -22.18,-1.53 -30.25,0.72 -4.44,1.25 -7.33,4.82 -10.8,5.76 -8.1,2.21 -27.31,0.84 -35.27,-0.72 -4.47,-0.87 -8.85,-4.96 -14.41,-5.76 -25.74,-3.7 -59.61,2.62 -81.36,-2.16 -3.19,-0.7 -5.94,-3.51 -8.64,-3.59 -5.89,-0.21 -11.67,5.73 -18,7.2 -7.06,9.73 -14.57,19.02 -25.92,24.48 -6.44,12.12 -21.4,15.72 -32.4,24.47 -3.96,3.17 -7.08,8.04 -10.79,11.52 -3.67,3.44 -7.21,8.4 -10.8,10.81 -2.43,1.62 -6.25,1.42 -8.65,2.87 -7.95,4.85 -12.26,15.86 -23.03,16.57 -6.98,-2.7 -12.87,-5.42 -18.73,-10.09 -2.76,-2.2 -4.55,-5.78 -7.2,-7.2 -2.57,-1.37 -5.95,-0.85 -8.64,-2.15 -4.01,-1.96 -6.59,-6.04 -10.8,-7.93 -3.71,-1.66 -7.65,-1.53 -11.51,-2.88 -8.14,-2.85 -15.34,-8.71 -23.76,-11.52 -2.99,-0.99 -6.38,-0.49 -9.36,-1.44 -4.96,-1.55 -10.35,-6.8 -16.57,-9.36 -6.42,-2.64 -12.98,-4.37 -18,-7.19 -5.86,-3.3 -10.68,-8.64 -18.71,-10.81 0,-31.1 -0.79,-61.48 5.03,-90.72 0.93,-4.66 3.15,-8.43 3.6,-12.96 0.37,-3.63 -0.4,-7.53 0,-11.51 0.54,-5.34 3.33,-10.62 3.6,-15.84 0.17,-3.16 -0.98,-6.29 -0.72,-9.37 0.35,-4.16 2.43,-8.77 2.88,-13.68 1.51,-16.18 -2.73,-36.11 0.72,-51.11 1.38,-6 5.36,-9.85 7.21,-16.57 -5.54,-6.74 -5.77,-13.01 -8.65,-23.03 -0.85,-2.98 -3.3,-5.4 -4.32,-8.64 -1.07,-3.43 -0.44,-7.26 -1.44,-10.8 -2.58,-9.27 -6.46,-16.3 -7.2,-25.2 -0.39,-4.74 0.74,-10.94 -0.71,-15.13 -1.64,-4.7 -7.76,-7.92 -9.36,-12.96 -2.38,-7.46 -0.14,-16.45 -2.16,-24.48 -1.92,-7.57 -7.87,-13.25 -10.81,-20.16 -2.2,-5.16 -0.99,-10.144 -2.16,-15.113 -1.33,-5.664 -7.27,-9.434 -9.35,-15.125 -2.55,-6.926 -0.34,-16.789 -2.88,-25.199 -2.49,-8.192 -9.59,-15.203 -11.53,-22.325 -3.33,-12.261 1.41,-25.554 -1.43,-37.429 -1.72,-7.16 -6.73,-14.239 -8.65,-21.602 -2.26,-8.722 -2.41,-18.293 -5.03,-25.207 -2.08,-5.469 -8.54,-9.605 -10.09,-15.113 -2.27,-8.07 -0.44,-16.582 -3.598,-23.039 -1.648,-3.379 -6.293,-6.289 -8.637,-10.086 -1.867,-3.012 -2.015,-6.82 -3.601,-9.359 -2.813,-4.52 -9.277,-6.543 -6.481,-15.118 4.336,-4.55 11.137,-4.101 16.563,-6.48 3.764,-1.652 8.614,-5.735 12.954,-8.645 4.52,-3.027 10.21,-5.371 12.96,-7.922 6.6,-6.082 9.66,-16.304 14.4,-24.468 -4.62,-8.821 -11.81,-12.727 -20.88,-18.008 -10.11,-5.891 -13.98,-1.887 -25.915,0 -3.398,0.535 -6.558,-0.547 -10.082,0 -8.222,1.289 -18.066,6.941 -25.918,10.086 -3.765,1.504 -7.578,1.66 -10.078,2.879 -10.316,5.031 -22.105,22.582 -34.562,21.593 -3.676,-0.285 -5.817,-3.828 -10.082,-5.039 -10.688,-3.027 -20.758,0.743 -29.516,3.606 -4.051,1.316 -9.262,2.176 -11.523,5.039 -1.145,1.441 -6.571,18.648 -7.199,24.48 -1.434,13.223 -2.645,35.313 1.441,43.196 1.852,3.574 8.469,5.32 10.078,9.363 3.242,8.145 -1.293,20.398 1.441,28.074 1.235,3.481 3.579,5.598 5.04,8.645 1.585,3.301 1.753,7.469 3.597,10.801 4.156,7.48 11.481,13.222 17.281,20.156 2.028,2.429 4.141,3.64 5.04,5.762 2.851,6.738 -0.567,20.351 2.164,31.679 0.945,3.946 3.781,7.129 4.32,10.078 1.316,7.332 -0.891,15.575 0,23.758 1.238,11.469 6.863,23.586 9.359,33.125 4.754,18.207 -0.57,36.407 3.598,54.717 1.398,6.13 3.758,11.79 5.039,18 1.309,6.33 4.234,11.34 5.762,17.28 2.91,11.34 0.718,26.69 0.718,39.6 0,14.13 0.098,29.8 0.723,43.92 0.445,10.17 0.945,21.24 -0.723,29.52 -1.843,9.16 -9.335,15.58 -12.242,23.76 -0.879,2.49 -0.359,5.9 -1.437,8.64 -1.731,4.42 -6.129,6.95 -8.641,10.81 -4.812,7.4 -6.508,16 -12.238,20.15 -11.051,2.49 -11.102,-4.08 -16.559,-10.08 -4.25,-4.66 -11.582,-7.09 -12.961,-14.39 -16.461,-11.39 -27.879,-27.81 -44.64,-38.89 -4.149,-7.35 -7.848,-14.61 -14.403,-20.15 -6.308,-5.35 -14.464,-7.97 -20.879,-12.25 -4.238,-2.82 -7.015,-9.51 -11.515,-11.52 -2.918,-1.29 -7.723,-0.77 -10.805,-1.44 -11.281,-2.46 -17.996,-11.63 -30.961,-8.63 -3.5,0.8 -6.14,3.64 -9.359,5.04 -4.945,2.14 -11.238,2.24 -15.117,4.31 -1.891,1.01 -3.461,3.43 -5.762,5.04 -11.563,8.14 -21.895,14.31 -30.961,25.92 -3.082,3.96 -5.098,11.55 -9.359,15.13 -3.918,3.28 -11.172,4.4 -17.278,5.76 -6.558,1.44 -13.562,4.11 -18.004,4.32 -5.179,0.23 -11.054,-3.67 -17.281,-4.32 -10.09,-1.07 -21.918,2.23 -31.68,1.44 -9.683,-0.79 -18.695,-6.39 -28.078,-7.2 -9.582,-0.84 -20.988,-1.82 -28.8,0.71 -4.493,1.46 -5.743,6.33 -10.079,8.64 -3.382,1.81 -7.871,1.9 -11.523,3.6 -5.137,2.41 -11.238,6.03 -14.398,9.36 -3.614,3.82 -7.286,14.39 -12.239,15.13 -4.097,0.59 -8.871,-2.72 -12.238,-5.76 3.687,-7.27 9.789,-18.1 4.32,-28.09 -9.472,-3.72 -14.281,2.83 -18.718,6.49 -8.231,-0.66 -7.106,-10.66 -16.567,-10.08 -3.875,-5.28 -7.953,-15.99 -15.84,-20.88 -3.527,-2.2 -12.316,-5.83 -15.84,-5.76 -6.406,0.11 -18.175,7.48 -19.437,14.39 -1.399,7.67 -1.707,48.05 0.719,58.32 2.203,9.32 8.757,13.21 11.523,18 1.359,2.37 1.891,7.12 2.875,8.64 1.356,2.09 5.176,4.27 7.922,7.2 5.797,6.19 11.227,13.27 18.004,19.44 4.148,3.78 7.508,7.73 12.238,12.96 2.735,3.04 7.137,6.03 8.641,8.64 1.543,2.69 1.367,6.16 2.879,8.65 1.41,2.31 4.16,3.55 6.48,6.47 2.246,2.83 2.832,7.17 5.039,10.08 1.989,2.63 14.281,14.8 17.281,15.84 22.661,7.97 30.36,-14.3 39.598,-23.04 6.375,0.38 9.949,7.81 15.84,10.08 6.371,2.47 14.031,1.08 17.281,7.92 19.742,7.25 45.317,7.8 65.524,0 5.215,-2.01 9.164,-7.67 15.84,-4.32 9.207,32.07 41.14,41.42 54.714,69.13 18.621,14.98 28.782,38.43 46.801,54 1.289,8.79 8.203,11.95 13.684,16.55 0.211,8.4 6.683,11.73 10.078,17.28 1.808,2.96 1.918,6.88 3.598,9.36 1.761,2.61 5.644,4.7 8.64,7.2 6.074,5.09 9.93,8.84 16.559,14.4 11.758,9.87 30.562,16.19 49.683,20.89 11.27,2.76 19.809,3.67 26.641,12.23 -1.871,10.42 -8.148,10.15 -18.004,13.69 -7.301,2.61 -14.086,9.98 -20.879,12.23 -5.441,1.81 -12.816,1.04 -19.437,3.61 -5.118,1.98 -9.907,6.02 -15.121,7.19 -13.332,3.02 -28.067,-2.01 -41.758,1.44 -4.035,1.02 -12.961,4.86 -18.004,7.21 -3.363,1.56 -5.766,4.95 -9.36,5.75 -11.656,2.6 -27.968,-1.21 -38.878,1.44 -8.637,2.1 -16.922,7.73 -25.2,9.36 -15.336,3.04 -27.312,1.04 -41.039,6.48 -2.941,1.17 -5.429,4.52 -8.644,5.76 -7.332,2.85 -15.586,0.82 -24.477,2.16 -5.742,0.87 -12.273,4.91 -18.719,7.21 -7.605,2.71 -15.367,2.84 -21.601,4.32 -4.184,0.99 -8.098,4.06 -12.242,5.75 -4.25,1.75 -8.785,4.9 -12.239,5.76 -5.336,1.34 -12.601,1.11 -17.281,1.44 -10.57,0.76 -22.512,-0.27 -32.398,2.89 -4.321,1.37 -8.895,4.11 -13.68,5.75 -5.023,1.73 -11.211,2.89 -14.402,5.04 -2.993,2.03 -5.067,8.86 -8.637,10.8 -3.227,1.76 -7.469,0.25 -10.805,1.44 -6.41,2.3 -9.16,9.35 -15.113,10.8 -31.012,2.35 -63.059,3.67 -82.805,17.28 -1.058,17.62 29.043,4.08 34.563,15.13 -9.442,11.27 -29.918,0.6 -42.485,7.19 -4.359,2.29 -8.265,10.04 -10.796,12.96 -3.524,4.06 -9.016,9.4 -8.641,15.12 0.508,7.78 7.93,6.66 12.961,10.8 3.348,2.77 2.277,6.71 5.762,9.37 11.074,3.04 22.753,0.14 33.836,2.15 6.089,1.11 13.691,4.44 22.32,2.89 3.191,-0.58 6.301,-3.08 9.359,-3.6 11.094,-1.93 22.063,0.87 32.403,-0.73 6.324,-0.97 11.492,-3.78 18,-2.15 3.796,6.21 -5.305,12.14 -6.481,19.43 -1.226,7.62 1.113,13.23 4.32,19.44 4.922,1.6 11.563,3.45 15.84,0 4.828,-3.88 2.754,-12.33 5.758,-18.71 1.273,-2.71 11.781,-13.21 15.121,-15.84 5.309,-4.19 10.094,-5.84 12.961,-12.97 13.965,0.81 22.012,-2.04 30.961,-6.48 3.656,-1.81 7.348,-5.36 10.801,-6.48 6.496,-2.09 16.515,0.35 25.918,-1.44 7.297,-1.38 13.469,-9.65 20.16,-10.8 10.582,-1.8 23.082,1.86 34.562,-0.72 8.829,-1.98 17.114,-7.08 25.2,-7.92 12.683,-1.3 25.996,2.52 38.879,0.72 6.14,-0.85 11.89,-4.94 18,-5.75 13.582,-1.82 27.347,-0.64 41.043,-2.17 5.144,-0.57 9.597,-3.7 15.117,-5.04 3.281,-0.79 6.625,-0.13 10.082,-0.72 4.472,-0.75 9.121,-3.09 13.676,-3.6 5.894,-0.64 11.621,0.4 15.839,-0.72 9.043,-2.38 16.071,-10.43 24.485,-12.24 6.57,-1.41 12.269,0.87 17.996,-0.71 3.969,-1.11 5.808,-5.3 9.359,-6.48 3.508,-1.18 11.418,-1.47 15.121,-0.73 4.914,1 6.399,4.99 9.364,5.77 4.617,1.2 9.886,0.52 12.957,0 4.054,-0.7 6.453,-4.59 11.519,-5.04 5.258,-0.47 7.195,3.02 12.957,5.75 2.824,1.34 6.457,1.11 8.645,2.17 6.742,3.25 11.09,10.92 17.281,11.51 3.906,0.55 5.574,-1.14 9.359,-0.72 8.172,2.43 9.535,10.39 15.118,12.97 11.308,5.21 36.039,1.04 53.281,0 6.015,-0.37 11.574,-1.34 16.566,-2.88 4.53,-1.41 8.41,-4.52 12.95,-5.76 9.89,-2.71 21.94,-1.58 30.25,-3.61 10.11,-2.47 18.17,-11.59 26.64,-12.24 10.84,-0.82 19.9,6.66 25.2,11.52 0.8,6.02 -1.02,9.4 -0.73,14.41 0.64,10.6 9.18,16.47 11.53,23.75 2.85,8.88 1.86,18.75 2.87,27.36 0.52,4.42 3.49,9.35 4.32,14.4 1.39,8.41 -0.66,14.11 5.77,18.73 2.56,1.84 5.63,0.73 9.36,2.87 4.1,2.37 7.06,9.14 11.52,12.97 1.98,1.7 4.86,3.05 7.2,5.03 2.34,1.99 3.89,4.88 5.75,5.77 2.79,1.32 8.38,1.18 11.52,2.15 7.39,2.29 17.91,9.03 30.24,6.48 4.36,-0.9 7.95,-4.97 12.24,-6.48 3.19,-1.11 6.88,-0.88 10.09,-2.15 6.4,-2.56 9.41,-9.96 15.83,-12.96 3.58,-1.67 8.16,-1.65 11.52,-2.88 6.72,-2.48 11.1,-6.98 17.29,-9.36 4.9,-7.38 7.11,-14.05 10.8,-24.49 1.82,-5.18 6.11,-10.31 5.04,-18.71 -1.03,-8 -6.18,-10.78 -5.04,-19.45 0.84,-6.47 6.98,-11.86 2.88,-20.88 2.14,-9.54 3.53,-16.38 2.16,-23.75 -1.74,-9.25 -10.19,-16.93 -13.69,-24.49 -3.1,-6.73 -2.81,-16.8 -5.76,-25.2 -1.99,-5.67 -6.34,-10.38 -5.03,-16.56 0.55,-2.62 5.07,-6.54 9.35,-10.07 4.16,-3.44 7.09,-7.33 9.36,-9.36 4.39,-3.93 9.87,-5.41 13.68,-8.65 2.3,-1.94 3.27,-5.28 5.77,-7.19 1.96,-1.52 6.01,-1.8 8.63,-3.61 1.59,-1.09 2.85,-4.09 5.04,-5.75 9.97,-7.57 25.79,-13.42 28.81,-20.89 3,-7.45 1.3,-22.67 -0.73,-30.95 -0.77,-3.16 -3.58,-6.28 -3.59,-9.37 -0.02,-3.27 3.3,-6.54 4.32,-10.8 0.99,-4.15 0.39,-9.5 1.44,-13.67 0.69,-2.78 3.13,-5 3.59,-7.21 0.65,-3.05 -0.76,-6.23 0,-8.64 2.98,-9.39 15.6,-10.9 14.4,-25.2 14.71,-11.45 23.51,-28.82 35.28,-43.19 5.91,-1.07 10.64,0.75 16.57,0.71 8.7,-0.05 16.57,-4.52 25.2,-5.76 12.22,-1.75 31.68,5.77 47.52,5.76 5.16,0 9.15,-1.11 13.68,0 3.93,0.98 6.93,4.44 10.79,5.76 5.2,1.78 11.4,0.82 16.56,2.16 8.87,2.32 15.46,9.24 23.05,13.69 5.47,3.21 10.38,4.92 15.11,8.64 4.54,3.55 8.25,7.45 12.96,10.07 1.71,4.3 2.32,9.69 5.76,12.25 12.35,0.58 13.4,-10.13 16.57,-18.73 11.62,-1.87 21.82,9.72 30.95,11.52 4.94,0.98 10.2,-0.31 14.41,0 8.64,0.66 18.96,2.12 26.63,5.76 3.96,1.89 6.73,6.95 10.8,10.08 2.23,1.71 4.78,2.14 6.48,3.6 5.2,4.49 9.89,10.31 15.12,15.12 15.29,14.04 29.75,29.88 45.36,44.64 20.63,19.51 39.89,40.42 59.05,60.49 15.91,12.87 40.28,17.31 48.24,38.15 13.2,7.92 19.61,22.64 32.39,30.97 1.68,7.52 2.14,13.5 7.21,18.71 2.16,2.24 5.85,2.76 7.92,5.05 2.35,2.61 8.21,13.05 9.35,16.55 3.42,10.46 2.95,20.71 14.41,23.76 4.2,19.08 21.93,24.63 27.35,42.48 7.53,1.31 7.89,9.78 13.68,12.96 9.26,5.08 19.86,-2.31 30.25,-2.15 3.21,0.04 5.88,2.02 9.35,2.88 4.66,1.13 10.39,0.46 13.68,1.44 6.29,1.86 10.88,7.04 16.57,9.36 -2.9,16.72 -20.13,9.16 -30.97,15.84 -4.58,2.81 -10.82,14.66 -11.52,20.88 -1.87,16.63 13.24,37.25 6.48,51.84 -2.8,6.05 -11.11,8.96 -10.8,15.84 0.2,4.25 7.52,11.62 10.09,15.83 3.92,6.46 8.1,13.68 13.67,20.16 3.39,3.94 10.47,8.45 12.24,13.68 3.5,10.28 -1.97,24.47 0.73,33.13 1.55,4.99 6.77,10.82 10.08,12.95 3.02,1.97 7.09,1.67 10.07,3.6 8.61,5.59 12.67,27.88 20.16,34.56 8.52,2.98 12.46,12.39 22.32,15.12 9.3,2.59 26.73,2.77 37.45,0.73 3.41,-0.66 6.73,-4.64 10.07,-5.05 6.6,-0.8 12.58,5.07 18.73,5.05 7.19,-0.04 13.82,-7.13 20.88,-11.53 7.93,-4.94 9.07,-5 15.11,-12.24 4.9,-5.85 12.1,-16.6 18,-21.6 9.25,-7.82 20.37,-7.5 23.05,-22.31 1.52,-8.45 -1.47,-16.03 0.72,-23.05 0.84,-2.7 4.59,-5.37 5.75,-8.63 1.14,-3.2 0.18,-7.08 1.45,-9.36 2.02,-3.65 8.4,-4.77 11.51,-8.65 3.9,-4.84 2.38,-8.56 5.76,-13.68 -1.74,-6.04 -4.35,-9.57 -0.71,-15.84 3.07,-5.3 11.47,-8.25 13.67,-14.4 1.58,-4.42 1.12,-11.89 2.88,-17.99 1.07,-3.73 3.7,-6.56 4.33,-9.37 1.24,-5.65 -0.29,-11.38 2.15,-16.55 1.48,-3.14 11.24,-14.33 16.57,-15.13 7.95,-1.18 17.43,4.46 27.35,6.48 2.88,0.6 5.48,0.05 7.92,0.72 8.06,2.22 12.45,7.95 18,10.8 3.21,1.66 7.2,1.73 9.36,2.88 3.41,1.83 6.89,5.67 10.8,8.65 3.6,2.73 8.24,4.61 11.52,7.19 3.84,3.02 6.72,9.58 10.8,13.68 1.86,1.86 5.18,2.78 6.49,4.33 2.33,2.77 2.07,7.23 4.31,10.07 2.05,2.59 6.83,3.41 10.09,6.48 2.7,2.56 4.12,7.27 6.47,9.36 2.35,2.09 6.39,2.79 9.37,5.04 2.47,1.88 4.15,4.89 6.47,6.48 7.24,4.97 15.69,7.22 19.45,14.4 2.94,0.18 4.05,2.19 7.19,2.17 1.74,5.8 7.24,6.9 11.53,10.8 3.05,2.78 4.14,7.32 7.19,10.07 2.03,1.84 5.11,2.48 7.2,4.32 2.37,2.09 3.39,5.63 5.76,7.93 6.59,6.35 13.93,12.57 20.88,19.43 -0.89,19.36 15.55,31.87 7.2,49.69 -4.66,2.77 -11.94,2.93 -15.84,6.48 0.02,12.22 12.76,11.71 19.44,17.28 2.89,9.59 -8.93,16.5 -10.8,25.19 -1,4.72 0.58,9.99 -0.72,14.41 -3.42,11.69 -18.88,22.49 -10.79,35.27 8.36,-0.02 13.1,-3.69 17.28,-7.92 6.34,7.42 -7.33,15.35 0.72,20.17" /></g></g></svg>